<svg width="50" height="17" viewBox="0 0 50 17" fill="none" xmlns="http://www.w3.org/2000/svg">
<path d="M0.868 12V2.088H4.774C5.28733 2.088 5.754 2.16733 6.174 2.326C6.60333 2.48467 6.95333 2.69467 7.224 2.956C7.504 3.21733 7.73733 3.52067 7.924 3.866C8.12 4.21133 8.23667 4.57533 8.274 4.958C8.31133 5.33133 8.30667 5.70933 8.26 6.092C8.22267 6.46533 8.106 6.82467 7.91 7.17C7.72333 7.506 7.49 7.80933 7.21 8.08C6.93933 8.34133 6.594 8.55133 6.174 8.71C5.754 8.85933 5.292 8.934 4.788 8.934H2.912V12H0.868ZM2.912 7.002H4.774C5.25 7.002 5.62333 6.85733 5.894 6.568C6.16467 6.26933 6.3 5.94267 6.3 5.588C6.3 5.224 6.16467 4.89733 5.894 4.608C5.62333 4.30933 5.25 4.16 4.774 4.16H2.912V7.002ZM12.8989 8.808L9.62292 2.088H11.9609L13.3469 5.112L13.8929 6.54H13.9489L14.5509 5.042L15.8669 2.088H18.1349L13.6549 12H11.4429L12.8989 8.808ZM25.3135 9.074L27.0915 10.068C26.6809 10.74 26.1582 11.2533 25.5235 11.608C24.8982 11.9627 24.2449 12.14 23.5635 12.14C22.5182 12.14 21.6082 11.8507 20.8335 11.272C20.0589 10.684 19.6715 9.87667 19.6715 8.85V5.238C19.6715 4.21133 20.0542 3.40867 20.8195 2.83C21.5942 2.242 22.5089 1.948 23.5635 1.948C24.2635 1.948 24.9309 2.13 25.5655 2.494C26.2095 2.858 26.6902 3.38533 27.0075 4.076L25.3555 4.972C25.1689 4.61733 24.8982 4.35133 24.5435 4.174C24.1889 3.98733 23.8109 3.89867 23.4095 3.908C22.9429 3.91733 22.5415 4.04333 22.2055 4.286C21.8789 4.52867 21.7155 4.846 21.7155 5.238V8.85C21.7155 9.242 21.8742 9.55467 22.1915 9.788C22.5182 10.0213 22.9102 10.1427 23.3675 10.152C23.7595 10.1613 24.1329 10.0773 24.4875 9.9C24.8515 9.71333 25.1269 9.438 25.3135 9.074Z" fill="#004261"/>
<rect x="36" width="14" height="14" rx="7" fill="#67C0DD"/>
<path d="M43.866 9.5C43.4811 10.1667 42.5189 10.1667 42.134 9.5L40.4019 6.5C40.017 5.83333 40.4981 5 41.2679 5L44.7321 5C45.5019 5 45.983 5.83333 45.5981 6.5L43.866 9.5Z" fill="white"/>
</svg>
